<svg xmlns="http://www.w3.org/2000/svg" viewBox="0 0 128 128" role="img" aria-labelledby="title-cor-anglais" fill="none">
  <title id="title-cor-anglais">Cor Anglais</title>
  <path d="M77.33 12.18 L72.16 13.54 L70.80 21.15 L65.63 25.51 L64.82 31.76 L66.99 26.59 L69.71 24.42 L64.00 42.92 L61.55 44.82 L62.10 49.45 L55.84 67.13 L55.84 73.66 L52.85 83.45 L49.31 89.71 L49.58 95.96 L47.68 102.49 L44.96 106.85 L44.96 109.02 L46.05 109.02 L50.67 97.32 L53.12 96.78 L50.94 92.70 L54.75 81.00 L56.93 79.37 L59.10 80.73 L57.20 88.89 L55.29 88.08 L53.93 89.44 L57.20 90.80 L54.21 96.51 L52.30 107.12 L53.66 112.56 L52.03 113.38 L44.96 111.74 L44.96 113.92 L52.85 115.55 L55.84 113.38 L54.21 107.93 L56.11 97.87 L60.19 90.25 L60.19 83.45 L65.09 67.94 L69.44 61.69 L73.25 47.54 L71.89 44.55 L72.43 39.92 L77.87 26.05 L76.79 22.24 L80.59 16.80 Z
      M76.79 13.81 L77.87 14.90 L77.87 15.17 L78.69 15.71 L78.69 16.53 L77.60 17.89 L77.33 18.71 L76.51 19.25 L75.97 20.34 L74.88 21.43 L74.34 22.51 L74.61 23.87 L75.43 24.96 L75.15 26.05 L74.07 26.87 L72.98 25.78 L72.71 25.78 L72.71 26.87 L73.79 27.68 L73.79 28.23 L74.07 28.50 L73.79 31.76 L73.25 33.12 L72.43 34.21 L71.89 36.93 L71.35 37.48 L70.26 37.75 L67.81 36.12 L68.08 34.48 L68.35 34.21 L68.35 32.04 L69.44 30.40 L69.44 27.95 L70.80 26.59 L71.35 25.51 L71.07 23.87 L72.43 22.51 L72.43 20.61 L72.98 19.79 L72.98 18.71 L73.25 18.43 L72.98 18.16 L72.98 15.98 L74.61 13.81 Z
      M62.37 65.77 L63.18 66.86 L63.18 68.22 L62.91 68.49 L62.91 69.85 L62.64 70.12 L62.37 72.57 L61.55 73.66 L61.28 76.11 L60.19 77.47 L59.92 78.83 L59.10 79.37 L58.29 78.55 L57.47 78.55 L56.38 77.74 L56.11 77.19 L56.11 76.11 L56.93 75.02 L56.93 74.47 L57.20 74.20 L57.47 71.48 L59.10 70.39 L60.46 70.12 L61.28 69.30 L61.28 66.04 L61.55 65.77 Z
      M67.26 45.09 L68.90 46.45 L68.90 47.00 L67.54 48.36 L66.18 48.36 L65.90 48.90 L65.90 50.26 L65.63 50.53 L65.63 51.89 L64.54 53.25 L64.27 56.25 L63.73 56.52 L63.18 57.34 L62.91 60.60 L62.10 61.69 L61.82 63.05 L61.28 63.59 L60.46 63.59 L60.19 63.32 L60.19 60.60 L61.28 58.42 L61.55 55.97 L62.37 54.89 L62.37 54.34 L62.64 54.07 L62.91 51.35 L64.00 49.17 L64.00 47.81 L64.27 47.54 L64.54 45.91 L65.36 45.09 L65.90 45.09 L66.18 44.82 Z
      M67.54 38.29 L68.35 38.29 L68.62 38.56 L69.98 38.29 L70.80 39.38 L70.80 41.56 L70.53 41.83 L70.53 42.92 L68.90 44.55 L67.54 43.73 L66.72 43.73 L65.90 43.19 L65.90 41.83 L66.72 40.47 L66.99 38.84 Z
      M69.44 52.71 L69.71 52.98 L69.71 55.97 L69.44 56.25 L69.44 57.06 L68.62 57.61 L68.35 58.15 L68.35 60.87 L68.08 61.14 L68.08 61.69 L66.99 62.50 L66.99 63.32 L66.45 63.86 L65.90 63.86 L65.36 63.32 L65.36 62.78 L65.63 62.23 L66.45 61.69 L66.45 61.14 L66.72 60.87 L66.72 57.61 L68.08 56.52 L68.08 53.80 L68.35 53.25 Z
      M66.45 52.71 L66.72 52.98 L66.72 56.25 L65.63 57.06 L65.63 59.78 L65.36 60.06 L65.36 60.60 L64.27 61.42 L64.27 62.78 L64.00 63.05 L64.00 63.59 L63.73 63.86 L62.91 63.86 L62.37 63.32 L62.37 61.14 L62.64 60.87 L63.73 60.87 L64.00 60.33 L64.00 57.06 L64.54 56.52 L65.09 56.52 L65.36 56.25 L65.36 53.25 L65.90 52.71 Z
      M69.98 47.00 L70.53 47.00 L71.07 47.54 L71.07 48.09 L71.35 48.36 L71.07 48.90 L71.07 51.08 L70.80 51.35 L70.80 52.44 L70.26 52.98 L69.71 52.98 L69.44 52.71 L69.44 48.90 L69.71 48.63 L69.71 47.27 Z
      M59.65 64.68 L60.46 65.77 L60.46 66.86 L59.65 67.94 L58.56 67.94 L58.29 67.67 L58.29 66.86 L58.56 66.58 L58.83 65.22 Z
      M67.26 48.63 L67.81 48.90 L67.81 49.45 L68.08 49.72 L68.08 51.89 L67.54 52.44 L66.72 51.89 L66.72 49.99 Z" fill="currentColor" fill-rule="evenodd" clip-rule="evenodd"/>
</svg>
