<svg xmlns="http://www.w3.org/2000/svg" viewBox="0 0 128 128" role="img" aria-labelledby="title-organ" fill="none">
  <title id="title-organ">Organ</title>
  <path d="M62.84 11.85 L60.07 94.87 L57.29 33.13 L53.59 29.19 L50.12 95.57 L47.81 47.00 L44.11 44.00 L41.57 47.70 L42.03 96.03 L91.06 96.49 L91.29 62.03 L95.68 113.37 L32.55 114.53 L35.32 97.19 L39.72 95.57 L39.49 63.65 L36.02 60.18 L30.47 114.76 L96.15 115.92 L94.06 63.42 L90.36 60.42 L87.82 64.58 L86.43 95.34 L82.96 44.23 L79.26 49.31 L76.49 94.41 L73.94 29.19 L70.01 33.82 L70.24 94.87 L67.01 94.41 L67.47 18.09 Z
      M88.28 106.90 L86.20 103.43 L85.04 100.42 L84.12 99.73 L68.86 99.96 L68.16 100.42 L66.08 99.73 L60.76 100.19 L43.19 99.96 L41.10 101.81 L39.49 105.97 L39.49 107.13 L40.41 108.06 L52.44 108.06 L56.60 107.59 L86.90 108.06 L87.82 107.82 Z
      M64.46 18.79 L65.16 19.25 L65.39 20.87 L65.39 74.99 L64.69 75.91 L63.31 75.68 L62.38 76.14 L61.69 74.99 L61.69 70.13 L62.38 68.51 L61.69 65.04 L61.69 19.48 L62.15 19.02 Z
      M53.82 31.04 L54.75 31.28 L55.67 33.36 L55.44 34.75 L54.29 35.67 L55.21 35.90 L55.91 36.60 L55.91 73.13 L55.44 73.60 L53.13 73.60 L52.21 72.44 L52.44 71.75 L52.21 45.15 L52.67 35.90 L52.44 32.66 L52.67 31.97 Z
      M73.94 31.04 L74.87 32.90 L74.18 34.75 L74.87 35.90 L75.10 68.05 L74.64 70.82 L74.18 71.28 L73.02 71.52 L71.86 70.36 L71.86 36.36 L72.33 35.44 L72.09 34.05 L72.33 31.74 L73.25 31.04 Z
      M35.79 62.03 L36.94 62.03 L37.40 62.50 L37.64 66.20 L38.56 67.35 L38.56 69.20 L38.33 69.43 L38.56 69.67 L38.33 70.82 L38.33 80.54 L36.94 81.92 L37.64 83.08 L37.87 84.24 L36.71 85.39 L36.71 85.85 L37.87 86.55 L38.33 87.24 L38.33 94.64 L36.71 95.57 L35.79 95.57 L35.09 94.64 L35.09 87.47 L35.55 86.09 L35.09 84.47 L35.55 82.62 L35.55 81.69 L35.09 80.77 L35.32 79.61 L35.09 79.15 L35.09 67.35 L35.32 67.12 L35.32 62.73 Z
      M45.27 45.85 L45.73 46.31 L45.73 47.00 L45.96 47.23 L45.96 49.08 L46.66 50.24 L46.66 74.29 L46.19 75.22 L44.11 75.68 L43.42 74.99 L43.42 72.90 L43.19 72.67 L43.19 69.67 L43.42 69.43 L43.42 50.47 L43.65 50.24 L43.42 47.00 L44.57 45.85 Z
      M82.04 46.54 L82.73 46.54 L83.43 47.23 L83.43 47.70 L82.96 48.39 L83.66 49.08 L83.89 49.78 L83.89 63.65 L84.12 63.88 L84.12 68.51 L83.89 68.74 L83.89 74.06 L83.19 75.45 L81.81 75.45 L80.88 74.75 L80.88 73.83 L80.65 73.60 L80.65 53.25 L80.42 53.01 L80.42 52.09 L80.65 51.86 L80.88 50.01 L81.81 48.85 L81.58 47.00 Z
      M53.36 74.29 L53.82 74.52 L55.21 74.52 L55.67 74.99 L55.67 76.84 L55.44 77.07 L55.44 77.99 L55.91 78.92 L55.91 94.87 L55.21 95.57 L54.75 95.34 L53.13 95.34 L52.44 94.64 L52.44 79.38 L52.90 78.45 L52.90 77.76 L52.44 76.60 L52.44 75.45 L52.67 75.22 L52.67 74.75 Z
      M62.38 76.60 L63.31 77.07 L64.69 76.84 L65.16 77.30 L65.16 77.99 L65.39 78.22 L65.39 94.87 L64.46 95.57 L64.00 95.34 L62.38 95.34 L61.69 94.64 L61.69 78.45 L61.92 78.22 L61.92 77.30 Z
      M83.19 76.37 L83.89 77.30 L83.89 84.70 L84.12 84.93 L84.12 92.79 L83.89 93.02 L83.89 93.72 L84.12 93.95 L84.12 94.64 L83.43 95.34 L81.58 95.34 L80.65 94.64 L80.65 79.84 L80.88 79.61 L80.88 78.45 L81.34 77.53 L82.04 76.84 Z
      M44.11 76.84 L45.73 76.84 L46.19 77.07 L46.66 78.22 L46.66 93.95 L46.89 94.41 L46.66 94.64 L46.66 95.10 L46.19 95.57 L44.11 95.34 L43.42 94.87 L43.42 77.99 L43.65 77.76 L43.65 77.30 Z
      M72.79 81.92 L73.94 81.92 L74.41 82.15 L75.10 83.08 L75.10 83.54 L74.87 83.77 L74.87 89.79 L75.10 90.02 L75.10 92.56 L74.87 92.79 L74.87 93.49 L75.10 93.72 L75.10 94.64 L74.41 95.34 L73.94 95.34 L73.71 95.57 L72.56 95.34 L71.86 94.64 L71.86 87.47 L72.09 87.24 L72.09 82.85 Z
      M73.02 71.75 L73.94 71.98 L74.87 73.13 L74.87 78.92 L75.10 79.38 L74.87 79.84 L73.48 81.00 L72.79 81.00 L72.09 80.07 L72.09 72.90 Z
      M64.69 110.83 L64.93 111.29 L65.39 111.29 L65.62 111.52 L66.54 111.52 L66.78 111.29 L68.86 111.29 L69.09 111.52 L72.33 111.52 L72.56 111.29 L73.02 111.29 L73.25 111.52 L74.64 111.52 L74.87 111.29 L86.90 111.29 L87.59 111.76 L88.05 111.76 L88.28 111.52 L88.28 110.83 L88.05 110.60 L86.90 110.60 L86.43 110.83 L86.20 110.60 L67.24 110.60 L67.01 110.37 L65.39 110.37 Z
      M39.49 110.60 L39.49 111.29 L39.72 111.52 L57.99 111.29 L58.22 111.06 L58.22 110.60 L57.99 110.37 L55.21 110.37 L54.98 110.60 L41.10 110.60 L40.64 110.37 L40.41 110.60 Z
      M63.31 13.24 L63.77 13.24 L64.23 13.70 L64.23 14.16 L64.93 14.86 L64.93 15.55 L65.16 15.78 L65.16 17.40 L64.69 17.86 L62.61 17.86 L61.92 17.40 L61.92 16.94 L61.69 16.71 L61.92 16.24 L61.92 14.86 Z
      M64.93 100.89 L65.39 101.35 L65.16 103.89 L64.93 104.12 L64.93 104.82 L64.46 105.28 L63.77 105.51 L63.31 105.05 L63.31 104.12 L63.77 103.20 L63.54 101.58 L64.23 100.89 Z
      M82.96 101.12 L83.66 101.58 L83.66 102.04 L83.89 102.27 L83.89 103.66 L83.19 104.36 L82.73 104.36 L81.58 102.97 L81.81 102.04 Z
      M67.70 100.66 L68.16 100.66 L68.63 101.35 L68.39 104.12 L67.93 104.59 L67.70 104.59 L67.01 103.66 L67.01 101.58 Z
      M60.76 100.89 L61.22 100.89 L61.92 101.58 L61.69 104.59 L61.22 105.05 L60.76 104.82 L60.53 102.51 L60.30 102.27 L60.30 101.58 Z
      M73.94 101.12 L75.10 101.12 L75.56 101.81 L75.56 103.66 L75.10 104.12 L74.87 104.12 L74.41 103.66 L74.18 102.97 L73.48 102.51 L73.48 101.58 Z
      M70.48 100.89 L70.94 100.89 L71.40 101.35 L71.17 103.89 L70.71 104.82 L70.24 104.82 L70.01 104.59 L70.01 101.35 Z
      M52.21 101.58 L52.90 101.58 L53.59 102.27 L53.59 103.43 L52.90 104.12 L52.21 103.89 L51.51 102.97 L51.51 102.27 Z
      M55.21 101.35 L55.67 101.35 L55.91 101.58 L55.91 105.28 L55.67 105.51 L55.21 105.51 L54.98 105.28 L54.98 103.20 L54.75 102.97 L54.75 102.27 Z
      M49.43 101.58 L49.89 101.58 L50.36 102.27 L50.36 103.43 L50.12 103.66 L50.12 104.12 L49.66 104.59 L49.43 104.59 L48.74 103.66 L48.74 102.51 Z
      M79.49 101.35 L79.96 101.35 L80.42 102.04 L80.42 104.12 L79.96 105.05 L79.73 105.05 L79.26 104.36 L79.26 101.58 Z
      M77.18 101.35 L77.64 101.35 L77.88 101.58 L77.88 104.59 L77.64 104.82 L77.18 104.82 L76.95 104.59 L76.95 103.89 L76.72 103.66 L76.72 102.04 Z
      M46.19 101.35 L46.66 101.35 L47.12 102.04 L47.12 102.97 L46.89 103.20 L46.89 103.66 L46.42 104.12 L45.96 104.12 L45.50 103.43 L45.50 102.27 Z
      M57.76 101.12 L57.99 101.12 L58.68 102.04 L58.68 103.20 L57.99 104.12 L57.76 104.12 L57.29 103.43 L57.29 101.58 Z
      M43.88 101.58 L44.57 102.04 L44.57 103.66 L44.11 104.12 L43.65 104.12 L43.19 103.66 L43.19 102.51 Z
      M72.79 102.74 L73.25 102.97 L73.25 103.66 L73.02 103.89 L72.56 103.66 L72.56 102.97 Z
      M63.31 68.05 L63.07 68.51 L63.54 68.74 L63.77 68.28 Z" fill="currentColor" fill-rule="evenodd" clip-rule="evenodd"/>
</svg>
