<svg xmlns="http://www.w3.org/2000/svg" viewBox="0 0 128 128" role="img" aria-labelledby="title-xylophone" fill="none">
  <title id="title-xylophone">Xylophone</title>
  <path d="M22.20 13.95 L19.69 17.89 L19.69 22.20 L16.10 25.43 L16.10 41.22 L21.12 45.16 L21.12 105.44 L16.46 109.03 L16.46 111.90 L19.33 114.41 L22.20 114.41 L34.04 106.88 L32.96 103.29 L27.94 102.21 L29.38 94.68 L63.46 81.76 L98.62 96.83 L98.62 105.80 L93.60 110.11 L95.40 114.05 L99.70 114.77 L108.31 109.03 L110.47 105.80 L105.44 102.57 L105.44 62.03 L111.54 57.72 L109.39 32.96 L104.72 29.73 L90.01 27.58 L82.12 24.35 L76.38 24.71 L70.28 21.84 L65.26 22.56 L50.19 17.18 L43.37 17.53 L40.50 15.38 L27.58 12.51 Z
      M18.25 27.22 L23.99 26.50 L86.07 40.50 L106.88 43.37 L109.03 45.52 L109.03 53.77 L103.29 55.57 L104.72 57.72 L101.85 58.44 L21.12 42.29 L21.12 40.50 L37.63 42.29 L57.72 47.67 L82.48 51.26 L91.45 54.85 L101.14 54.85 L99.34 53.42 L23.99 38.70 L18.61 36.55 Z
      M20.76 22.92 L21.84 18.61 L24.35 15.38 L28.30 15.38 L30.09 16.46 L29.38 20.05 L30.09 22.20 L31.89 22.20 L33.32 17.18 L39.78 17.89 L41.22 19.69 L39.78 21.84 L40.14 24.35 L41.93 23.63 L44.09 20.05 L48.75 19.33 L51.98 21.48 L50.90 26.15 L52.34 26.15 L55.57 21.48 L62.03 22.92 L63.46 25.07 L63.46 29.73 L64.90 29.38 L67.41 24.35 L69.92 24.35 L76.38 27.22 L75.66 29.73 L76.38 31.89 L77.81 31.17 L80.33 26.86 L86.78 28.30 L88.94 30.45 L88.58 34.76 L90.01 34.04 L92.52 29.73 L99.34 31.89 L100.42 32.96 L100.42 36.19 L101.85 36.19 L102.57 32.96 L104.72 32.25 L107.59 34.40 L107.59 39.78 L105.08 41.22 L100.06 40.86 L85.71 37.27 L62.39 33.32 L59.87 31.89 L46.60 29.73 L43.73 28.30 L22.56 24.71 Z
      M54.85 50.90 L57.00 51.26 L58.44 52.34 L58.80 53.42 L62.03 51.98 L64.18 53.77 L68.84 53.42 L70.28 55.21 L70.64 73.87 L70.28 75.30 L67.41 78.17 L66.33 78.17 L64.90 76.74 L65.26 73.15 L64.54 67.05 L64.18 70.64 L64.54 75.30 L62.03 77.10 L59.87 75.30 L59.16 73.87 L58.80 55.57 L58.44 55.57 L58.08 72.43 L57.00 73.51 L55.93 73.51 L53.77 72.43 L53.06 71.36 L52.34 53.06 Z
      M27.94 62.03 L31.17 62.03 L32.60 63.46 L32.96 84.63 L33.68 84.99 L34.04 65.97 L35.12 64.90 L36.55 64.90 L38.35 66.69 L39.06 68.13 L42.65 67.77 L45.16 70.64 L45.16 81.40 L43.73 83.55 L42.29 83.91 L40.14 83.55 L37.99 85.35 L34.04 86.07 L32.96 87.14 L31.89 87.14 L29.73 88.22 L27.58 88.22 L26.86 87.50 L26.86 85.71 L27.58 84.63 L27.22 83.55 L27.22 62.74 Z
      M84.99 57.00 L87.14 57.00 L88.94 59.87 L88.94 62.74 L88.94 59.87 L90.37 58.44 L92.88 58.44 L95.04 60.95 L98.27 59.51 L99.34 60.23 L101.50 60.23 L102.93 61.67 L103.29 105.80 L104.72 106.16 L106.88 105.08 L107.59 106.52 L105.44 108.67 L98.27 112.62 L96.83 112.26 L96.11 111.18 L100.42 106.88 L100.06 64.54 L97.19 65.26 L95.75 63.10 L95.75 64.54 L93.96 67.05 L90.73 68.13 L88.94 66.33 L87.86 69.20 L85.71 70.64 L84.63 69.92 L83.91 68.13 L84.27 58.08 Z
      M98.62 87.86 L97.91 88.94 L96.83 88.94 L96.47 88.58 L95.75 88.58 L94.32 87.50 L91.81 87.14 L90.01 85.71 L88.94 85.71 L87.14 84.99 L86.07 83.91 L83.55 83.55 L81.40 82.12 L79.97 82.12 L78.17 81.40 L77.10 80.33 L74.94 79.97 L72.79 78.17 L72.79 77.10 L73.15 76.74 L76.74 76.38 L78.89 74.94 L81.76 74.58 L83.55 73.15 L86.43 72.79 L88.94 71.00 L90.73 71.00 L92.88 69.56 L93.96 69.56 L95.40 68.84 L96.11 68.13 L97.91 68.13 L98.62 68.84 Z
      M24.71 44.45 L25.43 45.16 L25.79 47.32 L25.79 92.17 L26.50 93.24 L26.50 94.68 L25.79 95.75 L25.79 102.57 L27.58 105.44 L30.09 105.08 L30.81 106.52 L29.02 107.95 L26.15 109.03 L24.71 110.47 L22.92 110.82 L21.12 112.26 L20.05 112.26 L18.97 110.82 L19.33 109.75 L22.20 108.31 L23.28 106.88 L23.28 45.16 Z
      M35.48 46.96 L36.91 46.96 L38.70 48.75 L38.70 50.90 L39.06 50.90 L39.42 49.11 L41.93 47.67 L43.37 48.03 L44.45 49.11 L45.16 50.54 L45.16 61.67 L44.80 62.03 L45.16 64.90 L44.09 65.97 L41.93 65.97 L41.57 65.61 L40.86 65.61 L39.78 64.54 L39.78 63.82 L39.06 62.74 L39.06 61.67 L38.70 61.67 L38.35 62.39 L36.91 63.46 L35.48 62.74 L33.68 60.59 L33.68 58.80 L34.04 58.44 L34.04 53.06 L33.68 52.70 L33.68 49.83 L33.32 49.11 L33.68 48.39 Z
      M47.67 49.47 L49.47 49.47 L49.83 49.83 L50.54 49.83 L51.26 50.54 L51.26 51.98 L52.34 54.85 L52.34 56.29 L51.98 56.64 L51.98 60.59 L51.62 60.95 L51.26 68.49 L50.19 69.56 L48.03 69.56 L46.96 68.49 L46.24 67.05 L46.24 50.90 Z
      M72.43 54.85 L74.94 54.85 L75.30 55.21 L76.02 55.21 L77.10 56.64 L77.10 58.80 L76.74 59.16 L76.74 60.59 L77.10 60.95 L77.10 62.39 L76.74 62.74 L76.74 68.84 L76.38 69.20 L76.38 70.64 L77.10 71.36 L77.10 72.07 L75.66 74.23 L73.87 74.94 L72.43 74.94 L71.71 74.58 L71.00 73.51 L71.71 72.07 L71.71 70.64 L71.36 70.28 L71.36 68.13 L71.71 67.77 L71.36 67.41 L71.36 66.69 L71.71 66.33 L71.71 65.61 L71.36 65.26 L71.36 55.93 Z
      M79.61 55.57 L80.68 55.57 L82.84 57.72 L82.84 64.90 L83.20 65.26 L83.20 66.69 L82.84 67.05 L82.84 70.28 L82.12 71.71 L81.04 72.79 L78.89 72.79 L77.46 71.71 L77.81 71.00 L77.81 67.41 L78.17 67.05 L78.17 57.72 Z
      M28.66 45.88 L30.81 45.88 L31.17 46.24 L31.89 46.24 L32.60 46.96 L32.96 48.75 L33.32 49.11 L33.32 51.62 L32.96 51.98 L32.96 59.16 L31.89 60.23 L30.09 60.23 L27.58 57.36 L27.58 55.21 L27.22 54.85 L27.22 51.98 L27.58 51.62 L27.22 46.96 Z
      M68.13 80.68 L69.20 79.61 L71.71 79.97 L73.87 81.76 L76.02 82.12 L77.81 83.55 L81.04 83.91 L82.12 84.99 L82.84 84.99 L83.20 85.35 L84.99 85.35 L87.14 87.14 L88.58 87.14 L91.09 88.94 L93.24 89.30 L94.32 90.37 L95.40 90.37 L95.75 90.73 L97.91 90.37 L98.62 91.09 L98.62 92.17 L97.19 93.24 L95.75 93.24 L95.40 92.88 L93.60 92.52 L92.52 91.45 L90.01 90.73 L88.58 89.30 L86.07 88.94 L83.91 87.50 L82.12 87.50 L81.76 87.14 L81.04 87.14 L79.97 86.07 L76.38 85.35 L75.30 84.27 L73.51 83.91 L71.00 82.12 L69.20 82.12 L68.13 81.40 Z
      M46.24 72.07 L47.67 71.00 L49.11 71.36 L50.90 73.15 L51.26 73.15 L51.98 74.23 L53.42 74.94 L55.21 74.94 L55.93 75.30 L57.72 77.10 L57.72 78.17 L57.00 78.89 L55.93 78.89 L54.85 78.17 L52.70 77.81 L51.98 78.17 L49.47 81.76 L48.75 82.12 L46.96 81.76 L46.24 80.68 L46.24 76.38 L46.60 76.02 L46.24 75.30 Z
      M50.90 83.91 L50.90 84.63 L50.19 85.35 L46.96 85.71 L45.52 87.14 L44.80 87.14 L44.45 87.50 L41.93 87.50 L40.50 88.94 L39.78 88.94 L39.42 89.30 L37.27 89.30 L35.83 90.73 L35.12 90.73 L34.76 91.09 L31.53 91.09 L31.17 91.81 L30.09 92.52 L29.02 91.81 L29.02 91.09 L30.81 89.65 L32.60 88.94 L35.48 88.58 L37.27 87.14 L40.50 86.78 L41.57 85.71 L45.52 84.99 L46.60 83.91 L47.32 83.91 L47.67 83.55 L50.54 83.55 Z
      M62.74 78.89 L61.67 80.33 L60.95 80.33 L58.08 81.76 L56.29 82.12 L54.85 83.55 L54.13 83.55 L53.77 83.91 L51.26 83.91 L50.90 83.55 L50.90 82.84 L51.62 82.12 L54.13 81.40 L57.00 79.25 L58.44 79.25 L59.16 78.53 L60.59 78.53 L60.95 78.17 L62.03 78.17 Z
      M105.08 58.08 L105.08 57.36 L106.16 56.64 L107.95 56.64 L108.67 57.36 L108.67 57.72 L107.24 58.80 L106.16 58.80 Z
      M38.70 57.00 L38.70 59.87 L39.06 59.87 L39.06 57.72 Z" fill="currentColor" fill-rule="evenodd" clip-rule="evenodd"/>
</svg>
