<svg xmlns="http://www.w3.org/2000/svg" viewBox="0 0 128 128" role="img" aria-labelledby="title-menu" fill="none">
  <title id="title-menu">Menu</title>
  <path d="M15.17 32.12 L15.17 34.99 L16.32 35.56 L111.11 35.56 L112.26 34.99 L112.26 32.69 L110.53 30.97 L16.32 30.97 Z
      M14.60 63.71 L15.74 65.44 L111.11 65.44 L112.26 64.86 L112.83 63.14 L111.11 61.41 L82.38 61.41 L81.81 61.99 L80.09 61.41 L16.32 61.41 L15.17 61.99 Z
      M14.60 94.16 L15.17 95.88 L16.32 96.46 L32.40 96.46 L32.98 95.88 L42.74 95.88 L43.32 96.46 L107.66 95.88 L111.11 96.46 L112.26 95.88 L112.26 93.01 L111.11 92.44 L24.94 92.44 L24.36 93.01 L16.32 92.44 Z" fill="currentColor" fill-rule="evenodd" clip-rule="evenodd"/>
</svg>
